<svg width="14" height="16" viewBox="0 0 14 16" fill="none" xmlns="http://www.w3.org/2000/svg">
<g id="Group">
<path id="Vector" d="M12.9645 6.64138C12.703 6.12463 12.0846 5.84142 11.2237 5.84142H8.26523V1.60439C8.26523 0.515711 7.86631 0.155269 7.53038 0.0430909C7.19445 -0.0672484 6.64856 -0.0194347 5.95379 0.841212L0.538789 7.54617C0.0119859 8.20085 -0.134984 8.84449 0.126508 9.35941C0.388001 9.87433 1.00642 10.1575 1.86534 10.1575H4.82574V14.3946C4.82574 15.4851 5.22657 15.8455 5.5625 15.9559C5.64267 15.9834 5.73238 16 5.83354 16C6.16375 16 6.60847 15.8179 7.13909 15.1596L12.5503 8.45647C13.079 7.80179 13.226 7.15814 12.9645 6.64138Z" fill="white"/>
</g>
</svg>
