<svg width="14" height="16" viewBox="0 0 14 16" fill="none" xmlns="http://www.w3.org/2000/svg">
<g id="Group">
<path id="Vector" d="M7.76523 5.84142V6.34142H8.26523H11.2237C11.9996 6.34142 12.3803 6.59443 12.5183 6.86714C12.6524 7.13205 12.631 7.56066 12.1613 8.14232L12.1612 8.1424L6.75004 14.8455L6.7498 14.8458C6.27258 15.4379 5.95685 15.5 5.83354 15.5C5.78838 15.5 5.75362 15.4929 5.72519 15.4831L5.72521 15.483L5.71853 15.4808C5.65669 15.4605 5.57427 15.4162 5.49841 15.2881C5.41618 15.1492 5.32574 14.8833 5.32574 14.3946V10.1575V9.65753H4.82574H1.86534C1.09154 9.65753 0.710213 9.40455 0.572316 9.13301C0.438914 8.87032 0.45973 8.44211 0.92811 7.8599C0.928185 7.85981 0.928259 7.85972 0.928334 7.85962L6.34277 1.15536L6.34284 1.15528C6.65552 0.767944 6.90052 0.606768 7.06177 0.5425C7.21141 0.482857 7.31053 0.497383 7.37318 0.517741C7.43596 0.538921 7.51794 0.584149 7.59314 0.711618C7.6752 0.850715 7.76523 1.11644 7.76523 1.60439V5.84142Z" stroke="#02AF38"/>
</g>
</svg>
