<svg width="15" height="14" viewBox="0 0 15 14" fill="none" xmlns="http://www.w3.org/2000/svg">
<path id="star" d="M14.9255 5.24158C14.8396 4.98119 14.6798 4.7496 14.4645 4.57344C14.2492 4.39728 13.987 4.28369 13.7082 4.24572L10.3528 3.76912L8.85274 0.816906C8.7284 0.571735 8.53586 0.365272 8.29692 0.220896C8.05798 0.0765203 7.78219 0 7.50078 0C7.21937 0 6.94358 0.0765203 6.70464 0.220896C6.4657 0.365272 6.27316 0.571735 6.14882 0.816906L4.64711 3.76912L1.29172 4.24363C1.01318 4.28269 0.751468 4.3967 0.536217 4.57277C0.320967 4.74884 0.160779 4.97992 0.0737948 5.23985C-0.0131896 5.49978 -0.0234953 5.77817 0.0440449 6.04349C0.111585 6.30882 0.254273 6.55047 0.455948 6.7411L2.88396 9.0398L2.31071 12.286C2.26263 12.5556 2.29329 12.8328 2.39921 13.0864C2.50513 13.3399 2.68208 13.5595 2.90998 13.7203C3.13788 13.8812 3.40763 13.9767 3.68862 13.9963C3.96962 14.0158 4.25063 13.9585 4.49978 13.8308L7.49998 12.2985L10.5002 13.8313C10.7492 13.9585 11.0299 14.0154 11.3105 13.9957C11.5911 13.976 11.8604 13.8804 12.088 13.7198C12.3156 13.5592 12.4924 13.3399 12.5984 13.0868C12.7043 12.8337 12.7353 12.5568 12.6876 12.2875L12.1144 9.04136L14.5424 6.74266C14.7449 6.5526 14.8882 6.31102 14.9559 6.04556C15.0237 5.7801 15.0131 5.50148 14.9255 5.24158Z" fill="black"/>
</svg>
